<?xml version="1.0" standalone="no"?>
<!DOCTYPE svg PUBLIC "-//W3C//DTD SVG 20010904//EN"
 "http://www.w3.org/TR/2001/REC-SVG-20010904/DTD/svg10.dtd">
<svg version="1.0" xmlns="http://www.w3.org/2000/svg"
 width="256.000000pt" height="256.000000pt" viewBox="0 0 256.000000 256.000000"
 preserveAspectRatio="xMidYMid meet">
<metadata>
Created by potrace 1.14, written by Peter Selinger 2001-2017
</metadata>
<g transform="translate(0.000000,256.000000) scale(0.100000,-0.100000)"
fill="#000000" stroke="none">
<path d="M1215 2528 c-61 -70 -144 -217 -161 -283 -7 -30 -4 -30 -79 -6 -33
11 -76 22 -95 24 -83 13 -136 20 -150 18 -8 -1 -24 -1 -36 -1 -16 0 -24 -11
-34 -43 -22 -70 -28 -116 -29 -223 l-1 -82 -37 -7 c-76 -14 -208 -83 -240
-124 -21 -29 49 -179 119 -254 l48 -51 -49 -100 c-68 -140 -81 -179 -67 -191
29 -27 96 -58 169 -79 l81 -23 1 -102 c0 -55 -3 -101 -7 -101 -4 0 -31 11 -60
23 -43 19 -55 31 -66 60 -13 36 -35 50 -82 51 -23 1 -25 5 -28 51 -4 84 -9 95
-41 95 -32 0 -76 -44 -67 -67 11 -27 -40 -12 -79 23 -55 50 -84 60 -107 36
-31 -31 -29 -56 7 -98 19 -21 30 -40 25 -42 -5 -2 -29 4 -55 12 -52 18 -79 10
-90 -25 -9 -28 22 -69 62 -83 42 -15 50 -24 27 -33 -30 -11 -52 -42 -47 -64
10 -36 72 -46 145 -23 38 12 90 -40 93 -90 0 -17 53 -48 91 -53 35 -5 231
-100 356 -174 27 -16 51 -29 54 -29 3 0 20 -10 37 -22 18 -13 34 -23 37 -23 8
0 240 -147 245 -155 6 -10 -41 -141 -74 -205 -17 -32 -24 -55 -17 -56 36 -3
985 -3 1002 -1 21 4 21 6 8 50 -18 57 -52 117 -98 168 -19 21 -47 61 -62 88
l-26 48 22 42 c78 141 251 368 400 525 23 25 70 108 70 124 0 18 75 97 92 98
7 0 20 2 28 4 8 2 25 6 36 9 30 6 63 28 69 45 8 21 -25 50 -63 54 -31 4 -58
17 -34 17 15 0 49 70 45 91 -6 24 -39 30 -78 13 -45 -19 -44 -19 -30 23 15 42
12 54 -14 70 -32 20 -82 -2 -121 -52 -32 -41 -60 -58 -60 -36 0 11 -37 36 -67
45 -15 5 -27 1 -41 -15 -23 -24 -21 -59 8 -98 33 -48 30 -85 -10 -106 -33 -17
-45 -19 -46 -7 -2 34 -21 84 -44 119 -26 38 -31 83 -11 83 4 0 8 32 8 72 1 70
2 73 28 79 30 9 65 44 65 67 0 8 -10 0 -23 -19 -17 -25 -31 -35 -55 -37 -39
-4 -43 17 -9 45 30 25 87 97 123 158 29 48 74 149 74 165 0 16 -156 82 -223
94 -63 11 -62 9 -64 103 -1 49 -4 102 -8 118 -3 17 -8 47 -10 68 -2 21 -7 42
-10 47 -4 6 -79 -6 -120 -19 -3 -1 -13 -4 -22 -7 -10 -4 -46 -19 -79 -35 -50
-23 -67 -27 -93 -19 -17 5 -31 6 -31 3 0 -3 -10 7 -22 23 -62 79 -246 234
-278 234 -3 0 -14 -10 -25 -22z m-225 -1707 c0 -10 7 -31 15 -47 8 -15 12 -30
10 -33 -7 -6 -105 40 -105 50 0 8 60 49 73 49 4 0 7 -8 7 -19z"/>
</g>
</svg>
